<svg xmlns="http://www.w3.org/2000/svg" xmlns:xlink="http://www.w3.org/1999/xlink" width="328" height="295pt" viewBox="0 0 246.4 295"><g id="graph0" class="graph" transform="scale(1 1) rotate(0) translate(4 291)"><title>G</title><polygon fill="#fff" stroke="transparent" points="-4 4 -4 -291 242.4 -291 242.4 4 -4 4"/><g id="clust3" class="cluster"><title>cluster0</title><polygon fill="none" stroke="#000" points="98.4 -106 98.4 -234 230.4 -234 230.4 -106 98.4 -106"/><text x="164.4" y="-218.8" font-family="Times,serif" font-size="14" text-anchor="middle">bookstore</text></g><g id="node1" class="node"><title>gh</title><polygon fill="none" stroke="#000" points="88.4 -203 8.4 -203 8.4 -167 88.4 -167 88.4 -203"/><text x="48.4" y="-181.3" font-family="Times,serif" font-size="14" text-anchor="middle">github.com</text></g><g id="node2" class="node"><title>bookbuyer</title><ellipse cx="49.4" cy="-269" fill="none" stroke="#000" rx="49.29" ry="18"/><text x="49.4" y="-265.3" font-family="Times,serif" font-size="14" text-anchor="middle">bookbuyer</text></g><g id="edge1" class="edge"><title>bookbuyer-&gt;gh</title><path fill="none" stroke="#000" d="M49.18,-250.61C49.05,-239.77 48.88,-225.6 48.73,-213.29"/><polygon fill="#000" stroke="#000" points="52.23 -213.04 48.6 -203.08 45.23 -213.13 52.23 -213.04"/></g><g id="node4" class="node"><title>b1</title><ellipse cx="164.4" cy="-185" fill="none" stroke="#000" rx="58.49" ry="18"/><text x="164.4" y="-181.3" font-family="Times,serif" font-size="14" text-anchor="middle">bookstore-v1</text></g><g id="edge3" class="edge"><title>bookbuyer-&gt;b1</title><path fill="none" stroke="#000" d="M70.92,-252.79C76.74,-248.67 83.19,-244.1 89.86,-239.36"/><polygon fill="#000" stroke="#000" points="92.28 -241.93 98.4 -233.29 88.22 -236.23 92.28 -241.93"/></g><g id="node3" class="node"><title>bookthief</title><ellipse cx="162.4" cy="-269" fill="none" stroke="#000" rx="45.49" ry="18"/><text x="162.4" y="-265.3" font-family="Times,serif" font-size="14" text-anchor="middle">bookthief</text></g><g id="edge2" class="edge"><title>bookthief-&gt;gh</title><path fill="none" stroke="#000" d="M132,-255.53C119.77,-249.83 105.87,-242.46 94.4,-234 85.48,-227.43 76.78,-219.03 69.39,-211.11"/><polygon fill="#000" stroke="#000" points="71.77 -208.52 62.48 -203.43 66.56 -213.2 71.77 -208.52"/></g><g id="edge4" class="edge"><title>bookthief-&gt;b1</title><path fill="none" stroke="#000" d="M162.82,-250.61C162.87,-248.58 162.92,-246.43 162.98,-244.2"/><polygon fill="#000" stroke="#000" points="166.48 -244.08 163.22 -234 159.48 -243.91 166.48 -244.08"/></g><g id="node5" class="node"><title>b2</title><ellipse cx="164.4" cy="-132" fill="none" stroke="#000" rx="58.49" ry="18"/><text x="164.4" y="-128.3" font-family="Times,serif" font-size="14" text-anchor="middle">bookstore-v2</text></g><g id="node6" class="node"><title>bookwarehouse</title><ellipse cx="164.4" cy="-71" fill="none" stroke="#000" rx="67.69" ry="18"/><text x="164.4" y="-67.3" font-family="Times,serif" font-size="14" text-anchor="middle">bookwarehouse</text></g><g id="edge6" class="edge"><title>b2-&gt;bookwarehouse</title><path fill="none" stroke="#000" d="M164.4,-106C164.4,-103.89 164.4,-101.74 164.4,-99.61"/><polygon fill="#000" stroke="#000" points="167.9 -99.23 164.4 -89.23 160.9 -99.23 167.9 -99.23"/></g><g id="node7" class="node"><title>MySQL</title><ellipse cx="164.4" cy="-18" fill="none" stroke="#000" rx="40.09" ry="18"/><text x="164.4" y="-14.3" font-family="Times,serif" font-size="14" text-anchor="middle">MySQL</text></g><g id="edge7" class="edge"><title>bookwarehouse-&gt;MySQL</title><path fill="none" stroke="#000" d="M164.4,-52.73C164.4,-50.66 164.4,-48.5 164.4,-46.32"/><polygon fill="#000" stroke="#000" points="167.9 -46.25 164.4 -36.25 160.9 -46.25 167.9 -46.25"/></g></g></svg>